<?xml version="1.0" encoding="utf-8"?>
<!-- Generator: Adobe Illustrator 28.1.0, SVG Export Plug-In . SVG Version: 6.00 Build 0)  -->
<svg version="1.1" id="Layer_1" xmlns="http://www.w3.org/2000/svg" xmlns:xlink="http://www.w3.org/1999/xlink" x="0px" y="0px"
	 viewBox="0 0 151.5 63.7" style="enable-background:new 0 0 151.5 63.7;" xml:space="preserve">
<style type="text/css">
	.st0{fill:#0A5BAB;}
	.st1{fill:none;}
</style>
<g id="Logos">
	<g id="Logo_Safe-Area">
		<g id="Logo">
			<polygon class="st0" points="21.4,41.8 17.1,41.8 17.1,38.2 16,38.2 16,46.7 17.1,46.7 17.1,42.8 21.4,42.8 21.4,46.7 22.5,46.7 
				22.5,38.2 21.4,38.2 			"/>
			<polygon class="st0" points="27.5,46.7 28.6,46.7 28.6,39.2 32.8,39.2 32.8,46.7 33.9,46.7 33.9,38.2 27.5,38.2 			"/>
			<path class="st0" d="M38.6,40.5c-1.6,0-2.7,1.2-2.7,3.2v5.2h1V46h0c0.3,0.5,0.9,0.8,1.7,0.8c1.7,0,2.7-1.2,2.7-3.1
				S40.4,40.5,38.6,40.5L38.6,40.5z M38.6,46c-1,0-1.7-0.9-1.7-2.3s0.6-2.3,1.7-2.3c1.1,0,1.8,0.9,1.8,2.3S39.7,46,38.6,46z"/>
			<polygon class="st0" points="46.2,39.9 47,39.9 47.8,38 46.7,38 			"/>
			<path class="st0" d="M48.7,40.7c0.5,1,0.8,2.1,0.8,3.3c0,1.3-0.4,2.1-1.3,2.1c-0.7,0-1.1-0.5-1.1-1.4v-2.5h-1v2.5
				c0,1-0.4,1.4-1.1,1.4c-0.9,0-1.3-0.8-1.3-2.1c0-1.2,0.3-2.3,0.8-3.3h-1.1c-0.5,1-0.8,2.2-0.8,3.4c0,1.8,0.7,2.8,2.2,2.8
				c1,0,1.5-0.4,1.8-1.1h0c0.2,0.7,0.8,1.1,1.8,1.1c1.5,0,2.2-1,2.2-2.8c0-1.2-0.3-2.4-0.8-3.4H48.7L48.7,40.7z"/>
			<path class="st0" d="M51.1,41.5h2V45c0,1.4,0.5,1.8,1.5,1.8c0.2,0,0.5,0,0.7-0.1v-0.8c-0.1,0-0.2,0-0.4,0c-0.5,0-0.8-0.2-0.8-1.1
				v-3.4h2.2v-0.8h-5.3L51.1,41.5L51.1,41.5z"/>
			<path class="st0" d="M60.7,40.5c-0.9,0-1.6,0.4-2,1.1h0c-0.1-0.8-0.5-1-1.1-1c-0.2,0-0.4,0-0.6,0.1v0.8c0.1,0,0.2,0,0.3,0
				c0.4,0,0.5,0.2,0.5,1v4.3h1v-3.5c0-1.2,0.7-1.9,1.6-1.9s1.4,0.5,1.4,1.7v5.8h1V43C62.8,41.4,62,40.5,60.7,40.5L60.7,40.5z"/>
			<path class="st0" d="M69.7,38.2l-3.2,8.5h1.2l0.9-2.5h3.8l0.9,2.5h1.2l-3.2-8.5L69.7,38.2L69.7,38.2z M72,43.2h-3l0.3-0.8
				c0.4-1.2,0.8-2.3,1.2-3.5h0c0.4,1.2,0.8,2.3,1.2,3.5L72,43.2z"/>
			<path class="st0" d="M74.9,43.8c0,1.9,1.1,3.1,2.9,3.1s2.9-1.2,2.9-3.1c0-1.1-0.4-1.9-1-2.3v0h1.7v-0.8h-3.6
				C76.1,40.7,75,41.9,74.9,43.8L74.9,43.8z M79.6,43.8c0,1.4-0.6,2.3-1.8,2.3s-1.8-0.8-1.8-2.3s0.7-2.3,1.8-2.3
				S79.6,42.3,79.6,43.8z"/>
			<path class="st0" d="M86.4,40.5v-1.7h-1v1.7c-2.2,0-3.5,1.2-3.5,3.2s1.3,3.2,3.5,3.2v2h1v-2c2.2-0.1,3.5-1.2,3.5-3.2
				S88.6,40.6,86.4,40.5z M85.4,46.1c-1.5,0-2.4-0.9-2.4-2.4s0.9-2.3,2.4-2.4V46.1L85.4,46.1z M86.4,46.1v-4.8
				c1.6,0,2.4,0.9,2.4,2.4S88,46,86.4,46.1L86.4,46.1z"/>
			<path class="st0" d="M96.5,45v-2.2c0-1,0.1-1.6,0.1-2.2h-1c-0.1,0.3-0.1,0.6-0.1,0.9h0c-0.3-0.7-1.1-1.1-1.9-1.1
				c-1.6,0-2.5,1.2-2.5,3.2s1,3.2,2.5,3.2c0.8,0,1.6-0.4,1.9-1.1h0c0.1,0.7,0.4,1,1.1,1c0.3,0,0.5,0,0.7-0.1v-0.8
				c-0.1,0-0.2,0-0.3,0C96.6,45.9,96.5,45.7,96.5,45L96.5,45z M93.9,46c-1,0-1.7-0.9-1.7-2.3s0.7-2.3,1.7-2.3s1.7,0.9,1.7,2.3
				S94.9,46,93.9,46z"/>
			<path class="st0" d="M103,44.8l-1.6-4.2c-0.7-1.9-1.3-2.4-2.5-2.4c-0.3,0-0.6,0-0.8,0.1v0.8c0.2-0.1,0.3-0.1,0.6-0.1
				c0.7,0,1.1,0.4,1.6,1.7l-2.8,6.1h1.2l0.9-2.1c0.4-0.9,0.8-1.8,1.2-2.8h0l1.2,3.3c0.5,1.3,0.9,1.6,1.7,1.6c0.2,0,0.3,0,0.5-0.1
				v-0.8c-0.1,0-0.1,0-0.2,0C103.6,45.9,103.4,45.8,103,44.8L103,44.8z"/>
			<path class="st0" d="M105.9,44.8v-4.1h-1.1v4.2c0,1.4,0.5,1.9,1.7,1.9c0.2,0,0.5,0,0.7-0.1v-0.9c-0.1,0-0.3,0.1-0.4,0.1
				C106.1,45.9,105.9,45.6,105.9,44.8L105.9,44.8z"/>
			<path class="st0" d="M107.6,43.8c0,1.9,1.1,3.1,2.9,3.1s2.9-1.2,2.9-3.1c0-1.1-0.4-1.9-1-2.3v0h1.7v-0.8h-3.6
				C108.7,40.7,107.6,41.9,107.6,43.8L107.6,43.8z M112.2,43.8c0,1.4-0.6,2.3-1.8,2.3s-1.8-0.8-1.8-2.3s0.7-2.3,1.8-2.3
				S112.2,42.3,112.2,43.8z"/>
			<path class="st0" d="M114.4,41.5h2V45c0,1.4,0.6,1.8,1.5,1.8c0.2,0,0.5,0,0.7-0.1v-0.8c-0.1,0-0.2,0-0.4,0
				c-0.5,0-0.8-0.2-0.8-1.1v-3.4h2.2v-0.8h-5.3L114.4,41.5L114.4,41.5z"/>
			<path class="st0" d="M121.7,44.8v-4.1h-1.1v4.2c0,1.4,0.5,1.9,1.7,1.9c0.2,0,0.5,0,0.7-0.1v-0.9c-0.1,0-0.3,0.1-0.4,0.1
				C122,45.9,121.7,45.6,121.7,44.8L121.7,44.8z"/>
			<path class="st0" d="M126.7,43c1-1.2,1.5-1.5,2.2-1.5c0.1,0,0.2,0,0.3,0v-0.9c-0.1,0-0.3-0.1-0.4-0.1c-0.8,0-1.4,0.3-2.4,1.5
				l-1.3,1.5h0v-2.8h-1.1v6.1h1.1v-1.9l0.6-0.6l2.4,2.6h1.4l-3.1-3.3L126.7,43L126.7,43z"/>
			<polygon class="st0" points="133.6,38 132.6,38 132.1,39.9 132.9,39.9 			"/>
			<path class="st0" d="M133.4,40.5c-0.9,0-1.6,0.4-2,1.1h0c-0.1-0.8-0.5-1-1.1-1c-0.2,0-0.4,0-0.6,0.1v0.8c0.1,0,0.2,0,0.3,0
				c0.4,0,0.6,0.2,0.6,1v4.3h1.1v-3.5c0-1.2,0.7-1.9,1.6-1.9s1.4,0.5,1.4,1.7v5.8h1.1V43C135.6,41.4,134.8,40.5,133.4,40.5
				L133.4,40.5z"/>
			<g>
				<path class="st0" d="M16,17h1.8v17H16C16,34,16,17,16,17z M18.6,17H30v1.8h-9.6v0.9H30v1.8h-9.6v1.9h9v1.8h-9v0.9h9v1.8h-9v1.9
					H30v1.8h-9.6v0.8H30V34H18.6L18.6,17L18.6,17z"/>
				<path class="st0" d="M40.1,16.6c4.9,0,8.8,4,8.8,8.8s-4,8.8-8.8,8.8s-8.8-4-8.8-8.8S35.2,16.7,40.1,16.6z M40.1,32.5
					c3.9,0,7-3.1,7-7s-3.2-7-7-7s-7,3.1-7,7S36.2,32.5,40.1,32.5z M40.1,19.3c3.4,0,6.2,2.8,6.2,6.2s-2.8,6.2-6.2,6.2
					s-6.2-2.8-6.2-6.2S36.7,19.3,40.1,19.3z M40.1,29.9c2.4,0,4.4-2,4.4-4.4s-2-4.4-4.4-4.4s-4.4,2-4.4,4.4S37.7,29.9,40.1,29.9z
					 M37.4,25.5c0-1.5,1.2-2.7,2.7-2.7s2.7,1.2,2.7,2.7s-1.2,2.7-2.7,2.7S37.4,27,37.4,25.5z"/>
				<path class="st0" d="M50.5,17h1.8l11,17h-2.1l-6.2-9.7V34h-1.8V21.5l-0.8-1.3V34h-1.8V17L50.5,17z M53.2,17h2.1l6.2,9.7V17h1.8
					v12.5l0.8,1.3V17H66v17h-1.8L53.2,17L53.2,17z"/>
				<path class="st0" d="M68.1,17h1.8v17h-1.8C68.1,34,68.1,17,68.1,17z M70.7,17h1.8v17h-1.8C70.7,34,70.7,17,70.7,17z"/>
				<path class="st0" d="M74.6,17h1.8v17h-1.8C74.6,34,74.6,17,74.6,17z M77.2,17H79v17h-1.8C77.2,34,77.2,17,77.2,17z M80.4,23.8
					L88.6,34h-2.2l-7.1-8.8L80.4,23.8z M80.9,23.2l5.2-6.2h2.2l-5.2,6.2l0.5,0.6l5.7-6.8h2.2l-6.8,8.2l7.1,8.8h-2.2L80.9,23.2
					L80.9,23.2z"/>
				<path class="st0" d="M93,17h1.8v17H93C93,34,93,17,93,17z M95.7,17h1.8v6.1h7.1V17h1.8v17h-1.8v-6.5h-7.1V34h-1.8
					C95.7,34,95.7,17,95.7,17z M104.6,25.8v-0.9h-7.1v0.9H104.6z M107.2,17h1.8v17h-1.8C107.2,34,107.2,17,107.2,17z"/>
			</g>
		</g>
		<rect id="Safe-Area" y="0" class="st1" width="151.5" height="63.7"/>
	</g>
</g>
</svg>
